<?xml version="1.0" encoding="UTF-8"?>
<svg version="1.1" xmlns="http://www.w3.org/2000/svg" width="512" height="512">
<path d="M0 0 C-0.96145036 1.96119693 -1.93423804 3.88817231 -3.04174805 5.77148438 C-5.72067611 10.49967522 -6.38293552 14.37698504 -6.65380859 19.7644043 C-7.30967269 31.07049227 -7.30967269 31.07049227 -10.38720703 34.58349609 C-13.92684184 37.13298008 -17.95217491 38.57014395 -22 40.12353516 C-37.45714782 46.89735848 -48.8390685 62.80490917 -55.19140625 77.85546875 C-57.67288269 84.43677584 -58.45607945 91.01491502 -59 98 C-58.01 98 -57.02 98 -56 98 C-55.98582031 97.20078125 -55.97164062 96.4015625 -55.95703125 95.578125 C-55.27149966 79.79237044 -48.00640582 66.02662009 -36.5703125 55.19140625 C-16.56606357 38.13611195 4.74261448 33.30677277 30.43457031 35.17724609 C43.55185152 36.35995178 43.55185152 36.35995178 48 39 C47.13375 39.61875 46.2675 40.2375 45.375 40.875 C34.51617605 50.12036662 32.92210184 64.75589133 30.55517578 78.00854492 C28.5459665 89.18862969 26.51354624 99.0856231 19 108 C38.78269772 115.44693506 53.99324753 115.86901395 74.25 109.1875 C82.9702016 106.41329072 91.66266293 103.98309849 100.625 102.125 C101.53411133 101.93446045 102.44322266 101.7439209 103.37988281 101.54760742 C116.92361682 98.86145781 130.3291422 97.58476462 144.125 97.625 C144.83722717 97.62554382 145.54945435 97.62608765 146.28326416 97.62664795 C172.99519007 97.71971049 196.56624649 105.45563038 221 115.625 C224.16530328 116.93300842 227.33225497 118.23697955 230.5 119.5390625 C231.24679016 119.84623703 231.99358032 120.15341156 232.76300049 120.46989441 C246.84624279 127.09799627 246.84624279 127.09799627 261.6875 126.75 C264.52406933 125.25143507 267.25846752 123.66266706 270 122 C270.07770605 128.53881982 270.12927133 135.07751596 270.16479492 141.61669922 C270.17964358 143.82930954 270.19992767 146.04189178 270.22631836 148.25439453 C270.45879584 168.28392468 269.27193578 188.13394936 264.3125 207.625 C264.05686279 208.64948242 263.80122559 209.67396484 263.5378418 210.72949219 C257.59015854 233.74020119 248.52758088 256.70761605 233 275 C231.92492187 276.28197266 231.92492187 276.28197266 230.828125 277.58984375 C221.77300472 288.00965415 212.04427805 296.2345743 200 303 C198.80503906 303.70769531 198.80503906 303.70769531 197.5859375 304.4296875 C187.15930417 310.19837467 173.90667034 313.72980325 162 314 C160.84886719 314.05027344 159.69773437 314.10054688 158.51171875 314.15234375 C142.61254299 314.54549844 127.16909044 311.66009675 112 307 C110.99138916 306.69304199 110.99138916 306.69304199 109.96240234 306.37988281 C98.053043 302.68701542 87.75501852 297.29394367 77.12011719 290.86328125 C65.55319314 283.89009594 54.59042297 278.65979417 40.87109375 281.69140625 C31.96351182 284.20487978 24.41650644 288.17920101 16.6484375 293.140625 C-10.77880178 310.5399784 -47.97973116 318.80829636 -80 312 C-95.85201503 308.12408423 -109.29074165 301.25693591 -122 291 C-122.90685547 290.30583984 -122.90685547 290.30583984 -123.83203125 289.59765625 C-128.12241059 286.23553841 -131.52639259 282.16538516 -135 278 C-135.6290625 277.27039063 -136.258125 276.54078125 -136.90625 275.7890625 C-169.74936875 236.55978177 -178.57171286 178.51361054 -174.76416016 128.92871094 C-174.53458878 126.6151191 -174.28649915 124.30715883 -174 122 C-171.98177083 123.30208333 -169.96354167 124.60416667 -167.9453125 125.90625 C-166.08139534 127.16336501 -166.08139534 127.16336501 -164 127 C-164.76183594 126.29617187 -165.52367187 125.59234375 -166.30859375 124.8671875 C-183.94823067 108.16817827 -191.83657535 89.16503094 -192.6875 64.875 C-192.75807617 63.34552734 -192.75807617 63.34552734 -192.83007812 61.78515625 C-193.06727563 55.72689854 -192.83042362 50.00652272 -192 44 C-191.47881592 44.41958984 -190.95763184 44.83917969 -190.4206543 45.27148438 C-179.01212828 54.34913955 -167.41467003 55.88190806 -153.1875 56.4375 C-138.05141413 57.05949211 -123.75338351 58.64521166 -112.8125 70.0625 C-104.51985693 79.78715365 -97 91.81796125 -97 105 C-96.01 104.34 -95.02 103.68 -94 103 C-94.2165625 102.36835938 -94.433125 101.73671875 -94.65625 101.0859375 C-99.83740872 84.43906644 -96.68111707 67.38234177 -89 52 C-77.26054389 30.02264612 -59.75754505 14.57604507 -35.93261719 6.86865234 C-24.65077292 3.47660282 -11.81426497 0 0 0 Z M90 127 C91.60425611 137.25248734 98.66908496 147.33378772 106.9609375 153.4453125 C109.78445354 155.14895298 111.67071744 156 115 156 C115 148.47156965 110.81870288 143.49694911 106 138 C101.16673948 133.47856274 96.11924952 129.57652611 90 127 Z M-19.8125 140.4375 C-24.25262591 145.10855444 -28.38136746 150.40125296 -29 157 C-27.31026274 157.88556744 -27.31026274 157.88556744 -25 158 C-15.54915667 152.95955022 -9.57941053 144.49516195 -5 135 C-4.28960063 132.2706228 -4.28960063 132.2706228 -4 130 C-9.54995666 130 -15.94789779 136.74314458 -19.8125 140.4375 Z M43 132 C34.99607139 154.57107867 29.31071063 176.55630896 34.6875 200.5625 C34.83574219 201.23418213 34.98398437 201.90586426 35.13671875 202.59790039 C36.42539943 207.51036624 38.62038085 210.36256579 42 214 C44.90082405 213.68919742 45.93594171 213.06580988 48 210.9453125 C56.68490378 198.15543467 55.67746847 176.72517447 53.046875 162.203125 C50.9153938 151.84493601 47.93571424 141.81416401 44 132 C43.67 132 43.34 132 43 132 Z M69 135 C68.58815669 151.74829459 70.09652891 166.69147774 80.47265625 180.57421875 C82.26651882 182.24879634 83.60484988 182.61368546 86 183 C89.53276944 174.11495204 86.77925065 164.57152053 83.40234375 155.90625 C79.7660743 148.37036011 75.16341089 140.70115508 69 135 Z M16 138 C9.42889965 145.67781199 4.75937072 153.59520138 1 163 C0.319375 164.7015625 0.319375 164.7015625 -0.375 166.4375 C-1.39657844 172.26049711 -1.1471742 178.10485561 -1 184 C0.32 184.33 1.64 184.66 3 185 C13.32044815 173.99152198 17.22690431 161.04785251 17.0625 146.125 C17.05798828 145.34125 17.05347656 144.5575 17.04882812 143.75 C17.03714093 141.83329986 17.01920908 139.91663952 17 138 C16.67 138 16.34 138 16 138 Z M-161 169 C-164.48509342 173.05467932 -165.73309578 177.34714398 -165.4296875 182.62109375 C-163.35106122 194.12912467 -154.19201395 202.37505947 -145.0546875 208.8828125 C-138.37668839 213.61381706 -138.37668839 213.61381706 -131 217 C-129.9375 218.75 -129.9375 218.75 -129 221 C-128.65453125 221.763125 -128.3090625 222.52625 -127.953125 223.3125 C-125.45853852 230.34641597 -127.04838375 238.7439261 -128 246 C-127.01 245.67 -126.02 245.34 -125 245 C-122.43730409 237.71654845 -121.30689955 229.08864443 -124.4375 221.8125 C-128.39335453 215.02115534 -135.16784795 210.54716612 -141.4375 206.0625 C-157.77265529 194.36175674 -157.77265529 194.36175674 -161 186 C-161.74645496 181.02892763 -161.59520794 177.26184082 -159.4375 172.6875 C-156.55786321 169.51251585 -153.51880564 167.43609621 -150 165 C-150 164.34 -150 163.68 -150 163 C-154.75777894 163 -157.57553879 165.88560067 -161 169 Z M-134 171 C-129.31537974 193.72477282 -121.86240701 215.58301953 -106 233 C-105.10474609 233.99966797 -105.10474609 233.99966797 -104.19140625 235.01953125 C-92.25613612 247.67146887 -75.57478018 252.73855781 -58.5 253.3125 C-38.92444753 252.90254079 -20.99405118 247.24075689 -3 240 C-5.92252776 221.81538281 -16.88035362 203.60321892 -29 190 C-30.10408203 188.75476563 -30.10408203 188.75476563 -31.23046875 187.484375 C-45.16644046 172.6617754 -63.49352077 164.35425317 -83.91015625 163.69921875 C-85.96085178 163.68006572 -88.01174406 163.67658831 -90.0625 163.6875 C-91.69396973 163.69378418 -91.69396973 163.69378418 -93.35839844 163.70019531 C-107.52039194 163.89613694 -120.63445495 166.34803467 -134 171 Z M124 190 C113.38442759 202.5720782 99 223.00634652 99 240 C124.52453685 251.10260123 153.39049606 258.24074096 180.4375 248.1875 C185.35508182 246.00830404 189.71592899 243.23954486 194 240 C194.72960937 239.44828125 195.45921875 238.8965625 196.2109375 238.328125 C213.77562883 223.90658896 226.13868711 197.3323908 228.65625 174.9453125 C228.82640625 172.99238281 228.82640625 172.99238281 229 171 C192.47389994 158.4858405 151.56388458 160.03436101 124 190 Z M243 165 C244.36140088 168.15845004 245.79859228 169.89381771 248.5 172 C251.82962314 174.59597737 253.57198888 176.84759795 254.40625 181.04296875 C254.7372879 188.61546076 251.49504982 193.1637585 246.52197266 198.62231445 C242.24484302 203.08617821 237.63100461 206.5204474 232.5 209.9375 C222.25169463 216.75512064 222.25169463 216.75512064 216 227 C215.57001477 234.30974889 215.80481608 241.00285126 218 248 C218.99 248 219.98 248 221 248 C220.835 247.13375 220.67 246.2675 220.5 245.375 C219.52376408 238.24993486 218.62690235 230.3703306 221.375 223.625 C227.75136806 217.24863194 235.13891829 212.09123124 242.45703125 206.859375 C250.10875684 201.26456489 257.10295609 194.70410923 259 185 C259.17816529 180.57556207 258.67366588 177.15870532 256.4375 173.3125 C250.55357165 167.3267612 250.55357165 167.3267612 243 165 Z M-117.3125 254.4375 C-120.87784654 259.85154474 -121.86811632 264.58022622 -121 271 C-118.79942464 277.64930608 -114.95370619 282.40954282 -108.75 285.75 C-101.55789832 288.14736723 -95.07431005 288.23265094 -87.6875 286.8125 C-86.92550293 286.67884033 -86.16350586 286.54518066 -85.37841797 286.4074707 C-81.16324941 285.65247045 -76.98423568 284.78469836 -72.80859375 283.8359375 C-63.38207692 281.72750248 -55.53135829 280.13284344 -46 283 C-45.64107455 288.04489655 -45.41573745 291.85234141 -47.75 296.4375 C-49.75914863 298.72569705 -51.35248029 300.51077016 -54 302 C-55.32 302 -56.64 302 -58 302 C-59.35091528 299.29816945 -59.33858058 296.88191794 -59.5625 293.875 C-59.64628906 292.77929688 -59.73007813 291.68359375 -59.81640625 290.5546875 C-59.87699219 289.71164062 -59.93757813 288.86859375 -60 288 C-60.99 288.33 -61.98 288.66 -63 289 C-63.40967157 296.19706368 -63.40967157 296.19706368 -61.8125 303.125 C-60.10478936 305.11257755 -60.10478936 305.11257755 -57.75 306.0625 C-53.71255446 305.97073987 -51.02267868 304.53215626 -48 302 C-44.52906227 298.11803017 -41.67980251 294.12818354 -41.3125 288.8125 C-42.16427557 284.08901727 -43.43117757 282.18916047 -47 279 C-56.0057128 275.26177959 -64.62508538 277.32772675 -73.75 279.4375 C-74.77738281 279.66759766 -75.80476563 279.89769531 -76.86328125 280.13476562 C-81.98774659 281.27439599 -81.98774659 281.27439599 -87.07543945 282.56396484 C-90.48059628 283.33544906 -93.96264796 283.18453258 -97.4375 283.1875 C-98.18837891 283.19974609 -98.93925781 283.21199219 -99.71289062 283.22460938 C-104.61606343 283.23754651 -108.73645855 283.05204894 -112.546875 279.59765625 C-117.28173383 273.55609937 -117.76224886 268.50439367 -117 261 C-115.21049365 257.14567864 -113.73665715 255.50226624 -110.25 253.125 C-105.28723131 251.40711853 -101.16460712 251.08605477 -96.1875 253.1875 C-91.99549942 256.66087191 -90.54492128 260.88987575 -89 266 C-88.34 266 -87.68 266 -87 266 C-86.36039408 260.88315266 -87.70414921 257.94097246 -90.52734375 253.8359375 C-93.32213823 250.35171096 -95.87673175 248.3374731 -100.359375 247.625 C-107.68926447 247.26961142 -112.19547604 249.04388016 -117.3125 254.4375 Z M185.52734375 253.8359375 C182.70414921 257.94097246 181.36039408 260.88315266 182 266 C182.99 265.67 183.98 265.34 185 265 C185.91521187 262.99939943 185.91521187 262.99939943 186.5 260.625 C187.42494688 257.24453939 188.22627662 255.21625937 191 253 C195.3700345 251.54332183 199.61269796 251.13017114 203.97265625 252.71875 C207.95090051 254.81345186 210.47138198 256.77382076 212 261 C212.68171108 267.27942317 212.66532158 272.63292197 209 278 C205.50195069 282.17509111 203.11213025 282.79601676 197.8046875 283.30859375 C187.08847101 283.66011974 177.54466644 281.83384803 167.17529297 279.13452148 C158.59953837 276.93606209 150.46783738 275.41745342 142 279 C138.6298084 282.08336678 137.17852625 283.90900624 136.4375 288.4375 C137.52704018 295.33792112 140.93983829 299.58733372 146.265625 303.83203125 C148.57375452 305.38637973 150.20001797 306.07567519 153 306 C156.12056696 304.26635169 156.85331791 303.44004627 158 300 C158.0685495 298.10529184 158.08480372 296.2083166 158.0625 294.3125 C158.05347656 293.31863281 158.04445313 292.32476562 158.03515625 291.30078125 C158.02355469 290.54152344 158.01195312 289.78226562 158 289 C156.515 288.505 156.515 288.505 155 288 C154.90912109 289.26457031 154.90912109 289.26457031 154.81640625 290.5546875 C154.73261719 291.65039062 154.64882813 292.74609375 154.5625 293.875 C154.48128906 294.96554687 154.40007812 296.05609375 154.31640625 297.1796875 C154 300 154 300 153 302 C150.03517326 301.86210108 147.78765516 301.71055664 145.5234375 299.66796875 C142.05591145 295.50085411 140.86927304 293.1967025 140.9375 287.875 C140.94652344 286.96492188 140.95554687 286.05484375 140.96484375 285.1171875 C140.97644531 284.41851562 140.98804688 283.71984375 141 283 C150.92623552 279.27766168 161.70059311 282.14680131 171.68481445 284.57739258 C178.56463426 286.24981436 185.08840714 287.3921883 192.1875 287.4375 C193.21121704 287.45224365 193.21121704 287.45224365 194.25561523 287.46728516 C200.37972327 287.36280662 204.93082823 285.68420958 209.6875 281.8125 C214.22086542 276.29894746 216.6941182 271.35339316 216.3203125 264.1015625 C215.28738195 257.32453038 210.86015585 253.36984342 205.8125 249.1875 C198.19860379 245.97274382 190.77720448 247.29101828 185.52734375 253.8359375 Z " fill="#000000" transform="translate(242,118)"/>
<path d="M0 0 C-0.03480469 0.60585937 -0.06960937 1.21171875 -0.10546875 1.8359375 C-0.61028078 17.46107188 7.21080407 27.8909864 16.91015625 39.48046875 C24 48.02803738 24 48.02803738 24 51 C22.1640625 52.41015625 22.1640625 52.41015625 19.625 54.0625 C-1.75452759 68.7270492 -12.19868315 88.77485821 -20 113 C-21.15369286 111.84630714 -22.302057 110.68699183 -23.4296875 109.5078125 C-24.9674933 107.95085189 -24.9674933 107.95085189 -26.8203125 106.7421875 C-30.57015255 103.87097106 -31.85296537 101.84164653 -32.6796875 97.109375 C-32.89944579 94.80987885 -33.06602644 92.51085564 -33.22338867 90.20629883 C-33.67634547 84.41022808 -34.8934671 79.41599877 -37 74 C-37.26176025 73.32396729 -37.52352051 72.64793457 -37.79321289 71.95141602 C-38.92732441 69.16670613 -39.85457879 67.14542121 -42 65 C-42.27536305 78.12378192 -42.27536305 78.12378192 -40 91 C-40 92.32 -40 93.64 -40 95 C-40.6084375 94.87882812 -41.216875 94.75765625 -41.84375 94.6328125 C-42.7203125 94.46523437 -43.596875 94.29765625 -44.5 94.125 C-45.49644531 93.92777344 -46.49289063 93.73054688 -47.51953125 93.52734375 C-50.11397602 93.13424606 -52.41359375 92.92904876 -55.01171875 92.87890625 C-59.29715077 92.72700479 -62.89755665 92.35585535 -67 91 C-69.76146338 87.92171756 -71.43181807 84.88458521 -73.296875 81.203125 C-79.83314236 68.91014511 -97.96909455 65.91911808 -110.265625 62.13671875 C-111.49796875 61.76160156 -112.7303125 61.38648438 -114 61 C-113.84611816 60.39663818 -113.69223633 59.79327637 -113.53369141 59.17163086 C-111.13338151 49.40458762 -109.82424874 37.12299068 -114.7109375 27.96484375 C-116.60987044 25.0704096 -118.63935339 22.31069325 -120.828125 19.62890625 C-122 18 -122 18 -122 16 C-91.61842147 19.71757712 -63.94973154 30.5270687 -44.6171875 54.91015625 C-44.08351563 55.59980469 -43.54984375 56.28945312 -43 57 C-42.76925781 56.10539062 -42.53851563 55.21078125 -42.30078125 54.2890625 C-38.37834733 39.74659999 -18.69285787 0 0 0 Z " fill="#000000" transform="translate(159,80)"/>
<path d="M0 0 C2.38585813 1.12804171 4.12673646 2.11182629 6.125 3.875 C16.47068502 11.52181067 29.46274941 11.53963558 41.82421875 12.421875 C62.42001235 13.93164505 62.42001235 13.93164505 70 18 C70.63292969 18.33644531 71.26585938 18.67289063 71.91796875 19.01953125 C78.7295725 23.27490401 84.35267603 30.47461205 87 38 C61.89489188 35.94176028 61.89489188 35.94176028 52.76171875 25.421875 C52.07722656 24.54015625 51.39273438 23.6584375 50.6875 22.75 C49.99011719 21.85796875 49.29273438 20.9659375 48.57421875 20.046875 C48.05472656 19.37140625 47.53523438 18.6959375 47 18 C45.37687577 21.24624845 45.81549388 24.81473799 45.796875 28.3828125 C45.78832489 29.65341019 45.78832489 29.65341019 45.77960205 30.94967651 C45.77013553 32.75371042 45.76361154 34.55776176 45.75976562 36.36181641 C45.75020936 39.06576101 45.71926808 41.76889515 45.6875 44.47265625 C45.57434596 62.80297738 48.60037478 78.54259477 57 95 C51.04316518 94.51683451 46.54738524 93.29565893 41.25 90.5625 C40.55753174 90.20687988 39.86506348 89.85125977 39.15161133 89.48486328 C21.69005255 80.16692916 9.15928364 64.72256004 3.01171875 45.98828125 C0.86314274 38.52427074 -0.12993704 31.31482712 -0.09765625 23.53515625 C-0.0962413 22.85698349 -0.09482635 22.17881073 -0.09336853 21.48008728 C-0.08782745 19.34084422 -0.07528653 17.20171075 -0.0625 15.0625 C-0.05747736 13.60091298 -0.0529158 12.13932431 -0.04882812 10.67773438 C-0.03787745 7.11845474 -0.02065445 3.55923809 0 0 Z " fill="#000000" transform="translate(0,133)"/>
</svg>
