<?xml version="1.0" encoding="UTF-8"?>
<svg version="1.1" xmlns="http://www.w3.org/2000/svg" width="980" height="466">
<path d="M0 0 C2.96065406 2.3988072 5.72097535 4.91131437 8.45703125 7.5625 C10.94420419 10.01992979 10.94420419 10.01992979 13.6171875 12.08984375 C31.28226609 26.25086577 43.25794394 50.92186925 47 73 C47 74.32 47 75.64 47 77 C47.70769531 76.83886719 48.41539062 76.67773438 49.14453125 76.51171875 C67.59934607 73.20449475 92.54292853 77.47333991 108.95703125 86.5703125 C115.81423154 91.36904157 119.93059876 97.94280465 122 106 C123.08924696 113.20924274 121.72514829 119.72663433 118 126 C115.34426926 128.91598052 112.53011909 131.23494046 109 133 C109.56581787 133.03440186 110.13163574 133.06880371 110.71459961 133.10424805 C150.2277537 135.65667513 184.59218104 147.47421149 219.70117188 165.34912109 C226.25994496 168.67564255 232.84924247 171.82683475 239.625 174.6875 C240.36419678 175.00227295 241.10339355 175.3170459 241.86499023 175.64135742 C250.30181858 179.11890315 259.33737181 182.06903722 268.25 178.8125 C271.28105701 176.81475788 273.49296538 174.62641722 276 172 C279.53450199 168.77859366 283.01713559 165.65524294 287 163 C287.91727644 160.93418176 287.91727644 160.93418176 288.5 158.4765625 C288.7460498 157.54835693 288.99209961 156.62015137 289.24560547 155.66381836 C289.49455566 154.6610083 289.74350586 153.65819824 290 152.625 C290.26055176 151.58931885 290.52110352 150.5536377 290.78955078 149.48657227 C296.32020908 126.86413913 301.48625609 100.02541056 289 79 C289.28875 80.0621875 289.5775 81.124375 289.875 82.21875 C290.25051276 83.64569849 290.6254838 85.07278962 291 86.5 C291.28617188 87.54414063 291.28617188 87.54414063 291.578125 88.609375 C293.00951707 94.1304587 294.04277326 99.65613491 292.30078125 105.2421875 C290.7389366 107.82262649 289.30933109 109.78788725 286.8125 111.5 C279.59214603 112.78361848 273.00749293 111.10584049 267 107 C258.42992347 100.19291064 249.78299205 92.29228296 248 81 C247.87418873 76.07763408 248.08124729 71.60074616 251.125 67.5625 C259.55058774 60.05273701 270.3464387 60.40813548 281 61 C289.97199699 62.41536851 296.79568273 66.69689383 302.25 73.9375 C314.90466136 95.09775341 310.16179205 125.1447779 305 148 C304.55363968 149.7485122 304.09815678 151.49472535 303.6328125 153.23828125 C303.42237305 154.05651367 303.21193359 154.87474609 302.99511719 155.71777344 C302.59664528 157.22443652 302.16488723 158.72289735 301.69238281 160.20800781 C300.99786631 162.48338922 300.99786631 162.48338922 301 166 C302.66348567 168.71271145 304.66484361 170.85127069 307 173 C308.75418456 169.96072954 310.5031703 166.9185035 312.25 163.875 C312.79068115 162.93301758 313.3313623 161.99103516 313.88842773 161.02050781 C317.1991835 155.22656535 320.42427359 149.39543587 323.57836914 143.51489258 C331.00167494 129.68549002 338.87777279 116.06052603 349 104 C349.57621094 103.2678125 350.15242187 102.535625 350.74609375 101.78125 C359.04524271 91.7049444 369.81216406 84.04148257 382.98046875 82.6953125 C394.82782433 82.20467902 408.13408971 85.16700969 418 92 C423.07881827 96.83652603 426.1389624 100.45413681 426.375 107.5625 C426.29749231 114.75349146 424.23656408 119.40199222 419.4609375 124.7109375 C413.29573611 130.4670734 406.24851461 134.25710109 397.75 134.5625 C392.57462831 134.3296748 389.76280702 133.56476455 386 130 C382.91222595 125.0401957 383.34218676 119.63374704 384 114 C385.76029155 108.07782955 388.17642098 102.48882651 391 97 C385.10448646 95.29340398 380.46500833 96.60265147 375 99 C355.8622106 109.92027926 345.90261531 131.52571438 335.6796875 150.1328125 C332.56901619 155.79437601 329.41556332 161.43147586 326.25 167.0625 C325.71906738 168.01406982 325.18813477 168.96563965 324.64111328 169.94604492 C321.33914705 175.81190902 317.82223747 181.4587804 314 187 C326.91158092 184.3787418 338.87365546 180.29884957 351.125 175.5 C379.56675657 164.40562166 407.98137971 156.1942957 437.55493164 168.4621582 C450.57180251 174.19054675 463.59578765 182.65944057 471.2265625 194.98046875 C473.02028441 199.66407595 472.84124544 205.39022722 471.3125 210.1328125 C468.4349362 215.67212281 464.26324574 218.17700155 458.5625 220.25 C451.79386326 221.67497615 446.08562272 221.36032211 440 218 C435.386972 213.15040647 434.55302918 209.70970377 434.5703125 203.16796875 C435.33697122 197.5156031 438.17437562 192.87635453 441 188 C441.33 187.34 441.66 186.68 442 186 C419.46472412 174.89962794 399.23909086 172.87112995 375.18798828 180.94384766 C366.73954212 183.85809154 358.36693642 186.97591327 350.00537109 190.12939453 C320.72032348 201.16984269 320.72032348 201.16984269 308 201 C308.07508789 201.95414795 308.15017578 202.9082959 308.22753906 203.89135742 C308.976447 214.0660219 309.06930305 224.11883595 308.75 234.3125 C308.72666595 235.09102325 308.70333191 235.86954651 308.67929077 236.67166138 C306.73315346 298.88394921 289.54797525 357.71444722 248 405 C247.35289062 405.76957031 246.70578125 406.53914063 246.0390625 407.33203125 C242.05324581 412.04828041 237.72360012 416.03511286 233 420 C232.16082031 420.75023437 231.32164062 421.50046875 230.45703125 422.2734375 C221.98752885 429.67987132 212.75920611 435.43608964 203 441 C201.87078125 441.6496875 200.7415625 442.299375 199.578125 442.96875 C182.484913 452.14071741 163.13115456 457.31780094 144 460 C142.9167041 460.15251221 142.9167041 460.15251221 141.81152344 460.30810547 C134.04655617 461.23771423 126.2357179 461.22133674 118.42626953 461.24023438 C116.03251422 461.24986913 113.63964618 461.28094751 111.24609375 461.3125 C80.57897814 461.52302534 53.22160708 451.42158582 27.15234375 435.89990234 C9.15641104 425.19659787 -8.90391367 418.55822667 -29.9375 423.5625 C-40.87267448 426.41775938 -50.25551485 431.82486265 -59.6875 437.875 C-97.33584705 461.91540051 -142.21965247 466.88144627 -185.4375 457.8125 C-229.22011744 448.06119819 -270.38251738 421.99522131 -295 384 C-295.59216309 383.08637695 -295.59216309 383.08637695 -296.19628906 382.15429688 C-302.16713784 372.80733855 -307.32268095 363.05101315 -312 353 C-312.3285498 352.29456055 -312.65709961 351.58912109 -312.99560547 350.86230469 C-326.97587944 320.36361038 -333.89184044 287.27040026 -337 254 C-337.09571289 253.0937085 -337.19142578 252.18741699 -337.29003906 251.25366211 C-338.27079319 240.80239261 -338.1508752 230.32891589 -338.13037109 219.84106445 C-338.12497246 216.54568974 -338.13036317 213.25044891 -338.13671875 209.95507812 C-338.13605858 207.84635387 -338.13477868 205.73762969 -338.1328125 203.62890625 C-338.13483673 202.65071426 -338.13686096 201.67252228 -338.13894653 200.66468811 C-338.12292447 195.99563904 -337.96672905 191.592203 -337 187 C-337.53625 187.03480469 -338.0725 187.06960937 -338.625 187.10546875 C-358.2398344 187.78295481 -377.01238652 179.73149898 -394.95385742 172.78076172 C-419.55603058 163.25619085 -443.38029155 156.23212915 -468.8125 167 C-472.45683002 168.61038289 -475.40071656 169.93558163 -478 173 C-477.57847656 173.68707031 -477.15695312 174.37414062 -476.72265625 175.08203125 C-476.17480469 175.98308594 -475.62695312 176.88414062 -475.0625 177.8125 C-474.51722656 178.70582031 -473.97195313 179.59914062 -473.41015625 180.51953125 C-470.39809933 185.81774772 -470.39514076 191.04511819 -471 197 C-472.71141142 200.68611691 -474.24744538 202.42111183 -477.4375 204.875 C-484.19019043 207.00742856 -491.94014118 207.35562026 -498.5 204.375 C-502.74126602 201.86431399 -505.7886986 198.4226028 -508 194 C-508.98705513 186.80324362 -508.10567828 181.42652401 -504.00390625 175.40234375 C-491.55704543 160.48066849 -469.18195843 149.81854931 -450 148 C-428.58247039 146.55286962 -409.538195 152.73888128 -389.74853516 160.23095703 C-386.25063119 161.55412676 -382.75106846 162.87272626 -379.25 164.1875 C-378.10096191 164.61933594 -376.95192383 165.05117187 -375.76806641 165.49609375 C-367.28393817 168.63755046 -358.86444893 171.18095535 -350 173 C-350.4640625 172.25363281 -350.928125 171.50726563 -351.40625 170.73828125 C-356.44401305 162.52947672 -361.15163012 154.15524123 -365.77459717 145.70809937 C-384.13810722 107.92210828 -384.13810722 107.92210828 -415.5625 82.6875 C-419.13312699 81.9733746 -422.36821746 81.85176398 -426 82 C-424.56866517 86.38536627 -423.12279481 90.72952598 -421.375 95 C-418.92801025 101.56001507 -418.01087972 107.72383143 -420.9375 114.26953125 C-422.84895696 117.38267622 -424.66759222 118.54585842 -428 120 C-435.23001002 121.19875814 -441.70742281 119.63333017 -448 116 C-454.07291661 111.54594444 -460.03086764 106.5273925 -462 99 C-462.78807692 93.03842988 -462.56903968 88.01896205 -459 83 C-450.6748322 73.69417334 -438.4349099 69.56933452 -426.23828125 68.74609375 C-418.1237116 68.42989176 -411.21267331 68.94922045 -404 73 C-403.2678125 73.40089844 -402.535625 73.80179687 -401.78125 74.21484375 C-381.36152652 86.61766875 -369.66814364 110.23880189 -358.75 130.5625 C-354.2968239 138.84883963 -349.7477004 147.06582354 -345 155.1875 C-344.47245117 156.10152588 -343.94490234 157.01555176 -343.40136719 157.95727539 C-340.66765174 162.58823834 -338.02908279 166.42270774 -334 170 C-331.77819558 167.33277877 -331.77819558 167.33277877 -332.14111328 165.08325195 C-332.41544189 164.01530396 -332.41544189 164.01530396 -332.6953125 162.92578125 C-332.89672852 162.12736816 -333.09814453 161.32895508 -333.30566406 160.50634766 C-334.44740997 156.38498216 -335.64980235 152.28472913 -336.875 148.1875 C-338.99646496 140.92763523 -340.83645857 133.66882861 -342.3125 126.25 C-342.47153809 125.45360107 -342.63057617 124.65720215 -342.79443359 123.83666992 C-344.65262492 114.11949451 -345.20579172 104.64160243 -345.25 94.75 C-345.2809375 93.04263672 -345.2809375 93.04263672 -345.3125 91.30078125 C-345.37349912 77.86572452 -342.97218572 64.82975867 -333.77734375 54.60546875 C-326.56215516 48.08801268 -319.14566829 46.80783528 -309.8125 46.75 C-308.99974609 46.729375 -308.18699219 46.70875 -307.34960938 46.6875 C-300.69821465 46.64516813 -294.14919927 47.43842306 -288.84375 51.75390625 C-288.4003125 52.35074219 -287.956875 52.94757812 -287.5 53.5625 C-287.0359375 54.16191406 -286.571875 54.76132812 -286.09375 55.37890625 C-283.3454075 59.45234246 -283.59217135 63.21378456 -284 68 C-286.17388474 78.49048965 -294.79104032 86.73340211 -303 93 C-307.73991724 96.0426927 -312.2910547 97.89620099 -318 98 C-321.57554628 96.86774368 -324.12739762 95.81442889 -326.875 93.25 C-329.58265956 87.83468088 -329.02477749 82.66054063 -327.6875 76.9375 C-327.29111328 75.18759766 -327.29111328 75.18759766 -326.88671875 73.40234375 C-326.05485735 70.2104879 -325.08530545 67.1137366 -324 64 C-335.98624364 81.61337329 -332.70727746 104.06850566 -329 124 C-326.46366259 136.11234407 -323.35040173 148.03764082 -318.8828125 159.5859375 C-318 162 -318 162 -318 164 C-316.88625 164.14695313 -316.88625 164.14695313 -315.75 164.296875 C-312.65495863 165.08822081 -311.32229858 166.09625535 -309 168.25 C-308.31164062 168.8790625 -307.62328125 169.508125 -306.9140625 170.15625 C-305.36368995 171.64967009 -303.86136169 173.19285918 -302.375 174.75 C-298.52170235 178.40049251 -294.97551105 180.16813985 -289.6875 180.5625 C-270.87743625 179.7603061 -251.78426991 166.86531731 -235.23925781 158.625 C-204.41711597 143.29377919 -172.34623159 134.71505493 -138 133 C-138.53109375 132.70867187 -139.0621875 132.41734375 -139.609375 132.1171875 C-145.8484888 128.49667985 -149.39387269 124.87274715 -151.3125 117.75 C-152.86890769 109.40709389 -151.54988966 102.13064674 -147 95 C-146.65839844 94.40445313 -146.31679688 93.80890625 -145.96484375 93.1953125 C-138.66202211 82.62852877 -120.84019056 79.31331454 -109 77 C-103.43528869 76.16004358 -98.05979541 75.8444717 -92.4375 75.875 C-91.72142578 75.87113281 -91.00535156 75.86726563 -90.26757812 75.86328125 C-85.74632365 75.87150919 -81.46094321 76.26139442 -77 77 C-76.98582031 76.37996094 -76.97164063 75.75992188 -76.95703125 75.12109375 C-75.46998597 47.51028008 -56.75128203 23.77901219 -37 6 C-25.76444202 -3.62254951 -13.50505642 -7.92994371 0 0 Z M-232 259 C-233.17248291 259.57186035 -233.17248291 259.57186035 -234.36865234 260.15527344 C-236.71480355 261.31279101 -239.04715645 262.49363771 -241.375 263.6875 C-242.08293701 264.04368408 -242.79087402 264.39986816 -243.52026367 264.7668457 C-248.94129096 267.62832884 -252.71855213 271.15949346 -255 277 C-256.75393296 287.2537619 -252.52892842 294.79912609 -246.9140625 303.07421875 C-228.17977357 328.7434813 -204.31334071 345.2345627 -173 351 C-167.74109948 351.75969005 -162.69936846 352.12814434 -157.375 352.1328125 C-156.28826744 352.13499535 -156.28826744 352.13499535 -155.17958069 352.13722229 C-152.78633542 352.13947702 -150.39323138 352.13313954 -148 352.125 C-147.17128387 352.12311676 -146.34256775 352.12123352 -145.48873901 352.11929321 C-138.99227914 352.10226438 -132.49622884 352.05612094 -126 352 C-124.43708221 351.9870993 -124.43708221 351.9870993 -122.84259033 351.97393799 C-116.31577744 351.91719808 -109.7896759 351.83860791 -103.26342773 351.73553467 C-101.14044642 351.70367618 -99.01738957 351.67648676 -96.89428711 351.65411377 C-93.89916151 351.62078872 -90.90491483 351.56863726 -87.91015625 351.51171875 C-86.58275169 351.50211876 -86.58275169 351.50211876 -85.22853088 351.49232483 C-78.39065162 351.33048226 -73.12268048 349.87360829 -67.1875 346.3125 C-63.83771126 342.77129476 -61.99825219 338.9153512 -62.0012207 333.96386719 C-62.67040523 328.02321772 -64.1350235 322.58812722 -66.0625 316.9375 C-66.37123047 316.02500488 -66.67996094 315.11250977 -66.99804688 314.17236328 C-72.92465205 297.18533512 -81.51761473 282.02923263 -94 269 C-95.2065625 267.700625 -95.2065625 267.700625 -96.4375 266.375 C-116.91169615 247.39891576 -142.41512808 240.99667339 -169.80859375 241.71875 C-191.74696137 242.69832362 -212.39148944 249.3995085 -232 259 Z M60.36132812 272.82958984 C49.49522716 285.77381599 42.11821379 300.13374809 36.5 316 C36.16129883 316.95527588 35.82259766 317.91055176 35.47363281 318.89477539 C33.12342172 325.859559 30.96296001 332.54320004 33.125 339.75 C36.01266572 344.75528724 39.19162994 348.14567032 44.60754395 350.36218262 C50.26318366 351.86994921 56.28513092 351.63828278 62.109375 351.765625 C63.60087891 351.80757257 65.09235443 351.85054028 66.58380127 351.89447021 C69.71049309 351.98360143 72.83723322 352.06330509 75.96435547 352.13574219 C79.91495482 352.22757678 83.8647359 352.3381887 87.81466293 352.45511246 C126.78357207 353.59790339 164.49686671 353.06838223 196 327 C196.79921875 326.35289062 197.5984375 325.70578125 198.421875 325.0390625 C209.29476782 315.8533427 223.79721618 299.76151235 226 285 C226.2218784 279.37908051 224.56256448 274.35734023 221 270 C215.70664055 265.28163054 209.6975109 262.0488429 203.3125 259.0625 C202.40113281 258.63501465 201.48976563 258.2075293 200.55078125 257.76708984 C181.35810666 248.9781367 160.2281027 242.68385834 139 242 C138.3282373 241.97421875 137.65647461 241.9484375 136.96435547 241.921875 C107.50442668 240.91275734 80.4429627 250.40828927 60.36132812 272.82958984 Z " fill="#040404" transform="translate(508,4)"/>
<path d="M0 0 C0.66 0.33 1.32 0.66 2 1 C-5.92 8.92 -13.84 16.84 -22 25 C-22.66 24.67 -23.32 24.34 -24 24 C-16.48573927 15.49094352 -8.90728108 7.0801465 0 0 Z " fill="#5E5E5E" transform="translate(477,5)"/>
<path d="M0 0 C0.66 0.33 1.32 0.66 2 1 C-2.95 5.95 -7.9 10.9 -13 16 C-13.66 15.67 -14.32 15.34 -15 15 C-13.44221619 13.2456027 -11.87905295 11.49653989 -10.3125 9.75 C-9.44238281 8.77546875 -8.57226562 7.8009375 -7.67578125 6.796875 C-5.25206689 4.26347429 -2.7912151 2.11227089 0 0 Z " fill="#6A6A6A" transform="translate(870,95)"/>
<path d="M0 0 C0.66 0.33 1.32 0.66 2 1 C-1.96 4.96 -5.92 8.92 -10 13 C-10 8.83248505 -7.76127698 6.85829482 -5 4 C-3.36927384 2.62294236 -1.7133562 1.27277889 0 0 Z " fill="#6D6D6D" transform="translate(14,170)"/>
<path d="M0 0 C0.66 0.33 1.32 0.66 2 1 C-1.3 4.3 -4.6 7.6 -8 11 C-8 6.67750434 -5.85084926 5.11604454 -3 2 C-2.01 1.34 -1.02 0.68 0 0 Z " fill="#636363" transform="translate(179,55)"/>
<path d="M0 0 C0.66 0 1.32 0 2 0 C0.61811547 3.21043882 -0.92421903 5.04936365 -3.625 7.25 C-4.57246094 8.03117187 -4.57246094 8.03117187 -5.5390625 8.828125 C-6.02117187 9.21484375 -6.50328125 9.6015625 -7 10 C-5.15014033 6.06048404 -2.92434659 3.21678125 0 0 Z " fill="#6E6E6E" transform="translate(367,92)"/>
<path d="M0 0 C0.66 0 1.32 0 2 0 C0.69425831 2.91280837 -0.7074208 4.80294493 -3 7 C-3.66 7.99 -4.32 8.98 -5 10 C-4.49890042 5.61537866 -3.01704885 3.1999003 0 0 Z " fill="#6C6C6C" transform="translate(762,69)"/>
</svg>
