<?xml version="1.0" encoding="UTF-8"?>
<svg version="1.1" xmlns="http://www.w3.org/2000/svg" width="512" height="512">
<path d="M0 0 C0.66 0 1.32 0 2 0 C2.15033691 0.65371582 2.30067383 1.30743164 2.45556641 1.98095703 C7.7380626 24.68810429 13.48450533 45.30597118 34 59 C43.77651139 64.8231824 54.12274256 68.73704718 65 72 C91.76473572 80.06139608 116.45536512 87.64087387 138 106 C138.87140625 106.74121094 139.7428125 107.48242188 140.640625 108.24609375 C143.14555291 110.44800619 145.58146657 112.70350266 148 115 C148.49854492 115.47131348 148.99708984 115.94262695 149.51074219 116.42822266 C157.85240307 124.36674552 165.13879597 132.76207282 172 142 C172.41846191 142.55236328 172.83692383 143.10472656 173.26806641 143.67382812 C180.38612929 153.08311297 186.28564657 163.0716744 192.03540039 173.36450195 C192.8959686 174.97925028 192.8959686 174.97925028 194 176 C194.52207031 175.030625 195.04414063 174.06125 195.58203125 173.0625 C205.76391734 154.41527735 218.02803202 137.92593718 232.61474609 122.46875 C233.94444414 121.05890448 235.26348457 119.63903023 236.58203125 118.21875 C261.45922998 92.25993393 292.9806017 82.36109453 326.54833984 72.23095703 C345.65968415 66.41074231 362.44542657 56.73719696 372.71875 39.0390625 C378.45879965 27.41253336 381.27931756 14.61002952 384 2 C384.66 2 385.32 2 386 2 C396.35129455 22.87516707 403.60928114 42.80299219 403.28125 66.31616211 C403.24997272 68.56446131 403.24024 70.81205073 403.234375 73.06054688 C403.18558893 82.07894696 402.77048438 91.01131423 402 100 C403.09957031 99.28714844 404.19914062 98.57429688 405.33203125 97.83984375 C409.15874855 95.35990907 412.98871951 92.8850391 416.81933594 90.41113281 C418.7184558 89.18219049 420.61388479 87.94785666 422.5078125 86.7109375 C423.47460938 86.08445312 424.44140625 85.45796875 425.4375 84.8125 C426.28183594 84.26207031 427.12617188 83.71164063 427.99609375 83.14453125 C430 82 430 82 432 82 C430.68921445 89.60740707 428.63986902 96.81161693 426.1875 104.125 C425.61721069 105.83586792 425.61721069 105.83586792 425.03540039 107.58129883 C420.01557047 122.30831021 414.00681639 136.65371787 408 151 C409.13542236 150.75765625 410.27084473 150.5153125 411.44067383 150.265625 C415.64998662 149.36802958 419.86013847 148.47442591 424.07055664 147.58203125 C425.89337969 147.19510131 427.71597281 146.80708651 429.53833008 146.41796875 C432.15646756 145.85912862 434.77540481 145.30418409 437.39453125 144.75 C438.21025101 144.57500977 439.02597076 144.40001953 439.8664093 144.21972656 C442.9639266 143.56742338 445.82496779 143 449 143 C447.41641506 147.84390687 444.66968135 151.49019031 441.625 155.5 C441.09116699 156.20560059 440.55733398 156.91120117 440.00732422 157.63818359 C434.74146302 164.4960134 429.02846345 170.8113911 423 177 C422.43490723 177.58555664 421.86981445 178.17111328 421.28759766 178.77441406 C413.92490114 186.38314379 406.45367482 193.59277878 398 200 C397.3611084 200.48823242 396.7222168 200.97646484 396.06396484 201.47949219 C385.23299728 209.70712629 374.1195072 216.82540753 362 223 C361.27393555 223.36996094 360.54787109 223.73992187 359.79980469 224.12109375 C344.83827964 231.64536854 329.41359691 236.69437383 313 240 C312.14962158 240.17950195 311.29924316 240.35900391 310.4230957 240.54394531 C301.46994419 242.25718851 292.64436735 242.39627898 283.5625 242.375 C282.37370239 242.37518127 282.37370239 242.37518127 281.16088867 242.37536621 C268.40687734 242.34771001 256.35026913 241.39570773 244 238 C242.948125 237.73445312 241.89625 237.46890625 240.8125 237.1953125 C224.93155648 232.56337064 209.9194524 223.7714075 196 215 C194.3348958 213.99740049 192.66848392 212.99696498 191 212 C190.03513672 212.58116577 190.03513672 212.58116577 189.05078125 213.17407227 C164.43633908 227.93703165 164.43633908 227.93703165 151 233 C149.95714844 233.39445313 148.91429687 233.78890625 147.83984375 234.1953125 C121.51123466 243.18232192 90.76465266 242.38966411 64 236 C62.86981445 235.73509766 62.86981445 235.73509766 61.71679688 235.46484375 C13.41477776 223.72627925 -29.82056125 189.1471591 -58.5625 149.4375 C-59.00480957 148.82922363 -59.44711914 148.22094727 -59.90283203 147.59423828 C-63 143.24142834 -63 143.24142834 -63 141 C-57.58677742 141.6158598 -52.32163002 142.47194627 -47 143.62890625 C-46.2788501 143.78286362 -45.5577002 143.93682098 -44.81469727 144.09544373 C-42.54243917 144.5812965 -40.271218 145.07181071 -38 145.5625 C-36.44668114 145.89549293 -34.89329626 146.22817801 -33.33984375 146.56054688 C-29.55912415 147.37014558 -25.77932618 148.18392242 -22 149 C-22.38220703 148.06542969 -22.76441406 147.13085938 -23.15820312 146.16796875 C-35.96825696 114.78272911 -35.96825696 114.78272911 -40.75 100.4375 C-41.06001953 99.51388672 -41.37003906 98.59027344 -41.68945312 97.63867188 C-43.57519068 91.82682013 -44.93207725 86.01472805 -46 80 C-41.33049192 81.62889817 -37.39549778 84.11080374 -33.25 86.75 C-32.54423828 87.19520996 -31.83847656 87.64041992 -31.11132812 88.09912109 C-26.02104547 91.32086336 -20.98205826 94.61311452 -16 98 C-16.06856201 97.11151367 -16.13712402 96.22302734 -16.20776367 95.30761719 C-18.70576678 60.85887964 -16.94283883 30.95326325 0 0 Z M10 100 C7.14350329 104.28474507 7.39654701 107.97122507 8 113 C9.63922935 118.20123044 12.18072467 122.22891669 17 125 C19.26424351 124.87436418 19.26424351 124.87436418 21 124 C20.67 123.34 20.34 122.68 20 122 C19.35675781 121.87882812 18.71351562 121.75765625 18.05078125 121.6328125 C16 121 16 121 14.91796875 119.1796875 C13.26364963 113.96017798 12.74716218 110.35303431 14 105 C19.07220788 104.64405559 22.98414894 104.59519195 27.4140625 107.51171875 C33.29861828 113.03392504 35.34751969 122.45351092 37.76977539 129.93432617 C40.04186499 136.76322207 43.06513057 141.71370541 49 146 C49.66 145.67 50.32 145.34 51 145 C50.21753906 144.16597656 49.43507812 143.33195312 48.62890625 142.47265625 C45.82548289 139.10045097 44.79514583 135.68488886 43.9375 131.4375 C43.61158461 130.01902175 43.28342505 128.60105743 42.953125 127.18359375 C42.79392578 126.48089355 42.63472656 125.77819336 42.47070312 125.05419922 C40.14987027 114.92583428 37.81121771 106.87905595 29.0859375 100.62890625 C23.12117935 97.19501162 16.02732063 96.22659339 10 100 Z M350.26953125 108.984375 C345.84786585 116.00461914 344.1550936 123.90998784 342.48193359 131.93505859 C341.52934453 136.3603515 340.13184753 139.96579561 338 144 C338 144.66 338 145.32 338 146 C336.515 146.495 336.515 146.495 335 147 C335.99 147.33 336.98 147.66 338 148 C345.82969739 141.28883081 348.68342132 131.60336652 351.76928711 122.06542969 C353.63589293 116.45978111 355.71095229 111.56071435 360.75 108.125 C364.77917764 106.73028466 367.75768521 106.78056992 372 107 C373.43680971 113.13909603 372.32637691 117.20377279 370 123 C368.35 123.33 366.7 123.66 365 124 C365 124.66 365 125.32 365 126 C366.67828408 126.96624167 366.67828408 126.96624167 369 127 C373.97060565 123.75389019 376.28361865 120.81662568 378 115 C378.63514915 110.90040097 379.16917481 106.91864585 376.93359375 103.25 C374.2138641 100.64143097 371.85800011 99.9790492 368.1875 99.4375 C360.86658475 99.96942118 354.71419643 103.15610882 350.26953125 108.984375 Z M51.2265625 114.21875 C48.07737161 118.79209728 46.5088818 123.4121087 47.28125 129.0546875 C48.21399207 133.17429833 49.58431751 136.48628002 52 140 C53.39574507 137.20850987 52.94596307 134.98432874 52.8125 131.875 C52.77332255 125.96573522 53.37787365 121.74381709 57 117 C62.1041123 112.14486878 66.50258849 111.61474196 73.32421875 111.6328125 C76.17873396 112.024527 77.2029235 112.47538882 79.1875 114.5 C79.785625 115.325 80.38375 116.15 81 117 C79.125 122.75 79.125 122.75 78 125 C81.65316671 123.75023244 82.78065836 123.32901247 85 120 C85.51152843 116.16353679 85.1457631 114.28591993 83.375 110.8125 C80.10301723 106.93778357 77.53432442 105.3143649 72.44921875 104.68359375 C63.00222262 104.27853582 57.16056136 106.92556704 51.2265625 114.21875 Z M302.0625 113.375 C300.75385368 116.6081262 300.42401552 118.54409311 301 122 C303.37500791 124.87640616 303.37500791 124.87640616 306 127 C306.66 126.67 307.32 126.34 308 126 C307.46375 125.46375 306.9275 124.9275 306.375 124.375 C305 122 305 122 305.625 118.875 C307 116 307 116 310 114 C315.43802986 113.16540737 320.56910477 113.2821177 325.4375 116 C329.49952053 119.02774836 331.86277072 122.02097691 333 127 C333.42678984 132.33082114 333.23312336 137.66406532 333 143 C336.62213702 139.87179076 337.79893993 136.65292539 338.37109375 131.94921875 C338.52113999 124.57930049 338.04170575 119.56963306 333 114 C328.23911413 109.13940971 323.45450463 106.72284391 316.625 106.625 C310.20223224 106.75484032 306.23418698 108.26131919 302.0625 113.375 Z M71 146 C69.2989209 146.26925293 69.2989209 146.26925293 67.56347656 146.54394531 C65.9426416 146.80449707 65.9426416 146.80449707 64.2890625 147.0703125 C62.8342749 147.30258545 62.8342749 147.30258545 61.35009766 147.53955078 C58.99126832 147.89315917 58.99126832 147.89315917 57 149 C58.59788 152.86230422 61.2212689 155.58249536 64.0625 158.5625 C67.62940865 162.3655394 71.02516123 166.20927658 74.25 170.3125 C82.49379408 180.49513972 91.90399668 191.45869367 104 197 C104.67160156 197.32097656 105.34320313 197.64195312 106.03515625 197.97265625 C115.41961921 201.98390781 126.36921917 202.04304825 135.85009766 198.26220703 C144.34716024 194.84451471 144.34716024 194.84451471 151 189 C153.46873765 179.7134532 149.18096957 170.062404 144.86328125 161.8984375 C139.97860019 154.30004473 133.52177879 148.16100688 125 145 C123.989375 144.608125 122.97875 144.21625 121.9375 143.8125 C105.20607464 139.18465894 87.71939903 143.2738491 71 146 Z M244 160 C239.04627155 166.25442809 236.9815328 173.35694493 235 181 C234.81050781 181.73089844 234.62101562 182.46179688 234.42578125 183.21484375 C233.84046878 186.09105665 233.95196426 187.87390618 235 190.625 C241.58073285 198.43962026 251.19085207 201.30820666 261 203 C272.50906171 203.80765345 283.17047866 200.4592882 292 193 C300.66278512 185.12937444 308.7700818 176.70398836 316.01171875 167.5078125 C318.20261136 164.74444697 320.48021007 162.08252024 322.8125 159.4375 C323.52019531 158.63183594 324.22789062 157.82617188 324.95703125 156.99609375 C326.90568773 155.09214832 328.50302399 154.03806868 331 153 C330.34 153 329.68 153 329 153 C329 152.34 329 151.68 329 151 C283.1757027 139.88433392 283.1757027 139.88433392 244 160 Z M20.5625 152.3125 C15.75119316 158.72313321 15.28932189 165.18254081 16 173 C17.24791147 177.28969568 18.88383749 179.24188797 22.625 181.5 C26.70427221 183.29548077 29.71742262 183.14773888 33.94921875 181.890625 C37.20373314 180.47723589 38.95011126 178.88265604 41 176 C42.0615942 172.41136476 42.0615942 172.41136476 42 169 C41.34 168.34 40.68 167.68 40 167 C39.814375 168.093125 39.62875 169.18625 39.4375 170.3125 C38 174 38 174 34.6875 176 C30.31237855 177.18647361 27.98687246 176.99343623 24 175 C21.8292813 168.48784389 22.59657629 162.83788001 25.5390625 156.7265625 C28.27852903 153.48901115 31.36368732 152.21006505 35.54833984 151.67285156 C38.49236269 151.48219872 41.42562283 151.37909884 44.375 151.3125 C45.39722656 151.27833984 46.41945313 151.24417969 47.47265625 151.20898438 C49.98166114 151.12691412 52.49033465 151.05763124 55 151 C51.78660465 148.85773643 49.43016168 148.22972551 45.6875 147.375 C44.57761719 147.11460937 43.46773437 146.85421875 42.32421875 146.5859375 C34.23377383 145.15988963 26.3051513 145.96609807 20.5625 152.3125 Z M339.75 150 C338.63238281 150.28617188 338.63238281 150.28617188 337.4921875 150.578125 C335.66036095 151.04782412 333.830028 151.52334154 332 152 C332 152.33 332 152.66 332 153 C332.56920166 153.01458252 333.13840332 153.02916504 333.72485352 153.04418945 C336.33803828 153.11929165 338.95003099 153.21574189 341.5625 153.3125 C342.45775391 153.33505859 343.35300781 153.35761719 344.27539062 153.38085938 C349.87476404 153.60647515 354.07840558 154.24441979 359 157 C363.08313887 161.43107552 363.42658949 167.02624959 363.3359375 172.80078125 C363 175 363 175 361 178 C356.74218559 178.97720331 354.24528327 179.43314201 350.125 178 C347.26996703 175.31291015 346.78404221 172.77765791 346 169 C345.34 169.66 344.68 170.32 344 171 C344.04900309 176.78591525 344.04900309 176.78591525 347.1875 181.375 C351.46888678 183.84869014 354.57211608 185.0250506 359.5625 184.9375 C364.25713333 183.65714545 366.61931347 181.28661067 369.11328125 177.15625 C371.13432296 172.24164638 370.71967871 166.4483915 369.2421875 161.421875 C367.50902703 157.30050129 365.75159597 153.56688145 362 151 C353.94970957 147.90373445 348.0990045 147.81686808 339.75 150 Z M71 192 C71.33 195.63 71.66 199.26 72 203 C66.06 201.515 66.06 201.515 60 200 C68.61074012 211.10332279 80.19862962 217.71979707 94 220 C97.48433942 220.31093753 100.94036444 220.38061689 104.4375 220.375 C105.86243774 220.3747583 105.86243774 220.3747583 107.31616211 220.37451172 C118.15202945 220.20272909 129.00724613 218.32434963 139 214 C139 213.67 139 213.34 139 213 C137.69289063 212.96261719 136.38578125 212.92523438 135.0390625 212.88671875 C110.48983094 212.04497795 89.90504633 208.89387119 71 192 Z M310 195 C308.96114056 196.04488181 307.94440237 197.11178881 306.9375 198.1875 C294.42445659 210.70054341 275.85392465 214.06113435 258.75 214.625 C257.31914062 214.68300781 257.31914062 214.68300781 255.859375 214.7421875 C251.23738645 214.9219315 246.6262581 215.04657307 242 215 C255.56626744 224.04417829 276.60057447 224.76127933 292.125 221.875 C303.78346371 219.05818998 312.72692674 213.67198455 321 205 C321.33 204.34 321.66 203.68 322 203 C317.6822542 203.50797009 313.96697886 204.19682779 310 206 C310.165 205.484375 310.33 204.96875 310.5 204.4375 C311.15049 201.26636124 311.0620734 198.22781666 311 195 C310.67 195 310.34 195 310 195 Z " fill="#000000" transform="translate(63,135)"/>
</svg>
